<svg xmlns="http://www.w3.org/2000/svg" viewBox="0 0 1543.68 146.64"><defs><style>.cls-2{mix-blend-mode:multiply;opacity:.75}.cls-3{fill:#fff}</style></defs><g style="isolation:isolate"><g id="Laag_2" data-name="Laag 2"><g id="Laag_1-2" data-name="Laag 1"><path class="cls-3" d="M77.56 19.64H48.83v79.68H33.91V19.64H5.11V7.16h72.45ZM177.15 99.32h-13.38a6.15 6.15 0 0 1-5.77-3.07l-21.5-31a7.23 7.23 0 0 0-2.37-2.3 8.22 8.22 0 0 0-3.84-.71H122v37.08h-15V7.16h27.14A57.88 57.88 0 0 1 149.79 9a29.93 29.93 0 0 1 10.78 5.28 20.78 20.78 0 0 1 6.24 8.22 27.45 27.45 0 0 1 2 10.69 27.19 27.19 0 0 1-1.44 9 25.07 25.07 0 0 1-4.16 7.55 26.67 26.67 0 0 1-6.69 5.89 33.91 33.91 0 0 1-9 3.91 14.85 14.85 0 0 1 4.74 4.67Zm-43.4-48a29.08 29.08 0 0 0 9-1.24 18.18 18.18 0 0 0 6.4-3.49 14.21 14.21 0 0 0 3.85-5.35 17.75 17.75 0 0 0 1.28-6.88q0-7.55-5-11.52t-15.1-4H122v32.48ZM220 99.32h-15V7.16h15ZM287.16 7.16a51.65 51.65 0 0 1 15.65 2.12 30.06 30.06 0 0 1 10.94 5.92 23.46 23.46 0 0 1 6.43 9.15 31.82 31.82 0 0 1 2.12 11.81 31.62 31.62 0 0 1-2.24 12.06 25.44 25.44 0 0 1-6.66 9.41 31.18 31.18 0 0 1-11 6.14A47.9 47.9 0 0 1 287.16 66h-13.7v33.32h-15V7.16Zm0 47a27.7 27.7 0 0 0 8.8-1.28 17.28 17.28 0 0 0 6.34-3.62 14.78 14.78 0 0 0 3.8-5.66 20.38 20.38 0 0 0 1.28-7.42 19.88 19.88 0 0 0-1.24-7.24 14.17 14.17 0 0 0-3.75-5.44 16.71 16.71 0 0 0-6.3-3.42 30.2 30.2 0 0 0-8.93-1.18h-13.7v35.24ZM406.52 86.78v12.54h-53.25V7.16h15v79.62ZM493.56 87.23l-.07 12.09H436V7.16h57.47v12.1h-42.41V47H485v11.75h-33.94v28.48ZM589.94 99.32h-15V7.16h15ZM704.76 7.16v92.16h-7.62a6.59 6.59 0 0 1-2.94-.6 6.9 6.9 0 0 1-2.31-2l-50.62-65c.13 1.23.22 2.46.29 3.68s.09 2.33.09 3.36v60.6h-13.18V7.16h7.81a12.35 12.35 0 0 1 1.63.1 4.62 4.62 0 0 1 1.25.35 3.65 3.65 0 0 1 1.08.77 11.77 11.77 0 0 1 1.09 1.28L692 74.75c-.13-1.32-.22-2.63-.29-3.91s-.09-2.47-.09-3.58V7.16ZM806.77 19.64H778v79.68h-14.88V19.64h-28.8V7.16h72.45ZM893.74 87.23l-.06 12.09h-57.47V7.16h57.47v12.1h-42.43V47h33.92v11.75h-33.92v28.48ZM996.72 99.32h-13.38a6.17 6.17 0 0 1-5.76-3.07l-21.5-31a7.23 7.23 0 0 0-2.37-2.3 8.16 8.16 0 0 0-3.84-.71h-8.32v37.08h-15V7.16h27.14A57.88 57.88 0 0 1 969.36 9a29.85 29.85 0 0 1 10.78 5.28 20.78 20.78 0 0 1 6.24 8.22 27.27 27.27 0 0 1 2 10.69 27.19 27.19 0 0 1-1.44 9 25.07 25.07 0 0 1-4.16 7.55 26.5 26.5 0 0 1-6.69 5.89 33.85 33.85 0 0 1-9 3.91 14.92 14.92 0 0 1 4.73 4.67Zm-43.39-48a29.13 29.13 0 0 0 9-1.24 18.27 18.27 0 0 0 6.4-3.49 14.44 14.44 0 0 0 3.84-5.35 17.94 17.94 0 0 0 1.28-6.88q0-7.55-5-11.52t-15.1-4h-12.2v32.48ZM1101.61 99.32H1090a4.91 4.91 0 0 1-3.2-1 6.48 6.48 0 0 1-1.86-2.46l-7.68-20.35h-39.68l-7.68 20.35a6.11 6.11 0 0 1-1.79 2.37 4.79 4.79 0 0 1-3.2 1.08h-11.58l36.57-92.15h15.17Zm-28.35-34.56-12.67-33.66a94.67 94.67 0 0 1-3.14-9.92c-.47 2-1 3.85-1.53 5.54s-1.07 3.16-1.54 4.44l-12.67 33.6ZM1190.45 78.78a2.8 2.8 0 0 1 2.11 1l6 6.46a37.86 37.86 0 0 1-13.82 10.47q-8.2 3.67-19.59 3.68a46 46 0 0 1-18.27-3.49 40.23 40.23 0 0 1-13.92-9.73 43.16 43.16 0 0 1-8.86-14.88 55.82 55.82 0 0 1-3.11-19 53.17 53.17 0 0 1 3.3-19 43.71 43.71 0 0 1 9.28-14.91 41.66 41.66 0 0 1 14.33-9.69 47.61 47.61 0 0 1 18.41-3.46 45.08 45.08 0 0 1 17.63 3.23 43.83 43.83 0 0 1 13.23 8.54l-4.93 7a5.39 5.39 0 0 1-1.22 1.21 3.22 3.22 0 0 1-1.92.51 5.17 5.17 0 0 1-2.91-1.18 45.45 45.45 0 0 0-4.16-2.62 30.5 30.5 0 0 0-15.84-3.81 31.17 31.17 0 0 0-12.1 2.3 26.27 26.27 0 0 0-9.47 6.72 31.37 31.37 0 0 0-6.17 10.75 43.46 43.46 0 0 0-2.21 14.4 42.63 42.63 0 0 0 2.3 14.5 31.44 31.44 0 0 0 6.34 10.75 27.15 27.15 0 0 0 9.47 6.69 29.65 29.65 0 0 0 11.71 2.3 50.71 50.71 0 0 0 6.88-.41 27.17 27.17 0 0 0 5.6-1.35 25.4 25.4 0 0 0 4.84-2.33 31 31 0 0 0 4.51-3.46 3.83 3.83 0 0 1 2.56-1.19ZM1291.57 19.64h-28.74v79.68h-14.91V19.64h-28.8V7.16h72.45ZM1336 99.32h-15V7.16h15ZM1451.69 7.16l-37.37 92.16h-13.51l-37.37-92.16h12a4.84 4.84 0 0 1 3.2 1 6.48 6.48 0 0 1 1.86 2.46l23.74 60.1a97.24 97.24 0 0 1 3.52 11.64q.71-3.26 1.51-6.2a54.44 54.44 0 0 1 1.76-5.44l23.68-60.1a6.21 6.21 0 0 1 1.79-2.37 4.79 4.79 0 0 1 3.2-1.09ZM1536.62 87.23l-.07 12.09h-57.47V7.16h57.47v12.1h-42.43V47H1528v11.75h-33.92v28.48ZM612.08 139.01h317.58"/><path style="fill:none;stroke:#fff;stroke-miterlimit:10;stroke-width:3px" d="M612.08 139.01h317.58"/></g></g></g></svg>